<?xml version="1.0" encoding="UTF-8"?>
<svg id="Lager_1" data-name="Lager 1" xmlns="http://www.w3.org/2000/svg" viewBox="0 0 1000 1000">
  <defs>
    <style>
      .cls-1 {
        opacity: .67;
        stroke-width: 5.29px;
      }

      .cls-1, .cls-2, .cls-3, .cls-4, .cls-5, .cls-6, .cls-7, .cls-8, .cls-9, .cls-10, .cls-11, .cls-12, .cls-13, .cls-14, .cls-15, .cls-16, .cls-17, .cls-18, .cls-19, .cls-20, .cls-21, .cls-22, .cls-23, .cls-24, .cls-25, .cls-26, .cls-27, .cls-28, .cls-29, .cls-30, .cls-31, .cls-32, .cls-33, .cls-34, .cls-35, .cls-36, .cls-37, .cls-38, .cls-39, .cls-40, .cls-41, .cls-42, .cls-43, .cls-44, .cls-45, .cls-46, .cls-47, .cls-48, .cls-49, .cls-50, .cls-51, .cls-52, .cls-53, .cls-54, .cls-55, .cls-56, .cls-57, .cls-58, .cls-59, .cls-60, .cls-61, .cls-62, .cls-63, .cls-64, .cls-65, .cls-66, .cls-67, .cls-68, .cls-69, .cls-70, .cls-71, .cls-72, .cls-73, .cls-74, .cls-75, .cls-76, .cls-77 {
        fill: none;
        stroke: #fff;
        stroke-dasharray: 0 30 0 30 0 30;
        stroke-linecap: round;
        stroke-linejoin: round;
      }

      .cls-2 {
        opacity: .53;
        stroke-width: 4.04px;
      }

      .cls-3 {
        opacity: .38;
        stroke-width: 2.79px;
      }

      .cls-4 {
        opacity: .5;
        stroke-width: 3.83px;
      }

      .cls-5 {
        opacity: .18;
        stroke-width: 1.13px;
      }

      .cls-6 {
        opacity: .23;
        stroke-width: 1.54px;
      }

      .cls-7 {
        opacity: .68;
        stroke-width: 5.32px;
      }

      .cls-8 {
        opacity: .25;
        stroke-width: 1.75px;
      }

      .cls-9 {
        opacity: .48;
        stroke-width: 3.63px;
      }

      .cls-10 {
        opacity: .35;
        stroke-width: 2.58px;
      }

      .cls-11 {
        opacity: .7;
        stroke-width: 5.5px;
      }

      .cls-12 {
        opacity: .31;
        stroke-width: 2.29px;
      }

      .cls-13 {
        opacity: .36;
        stroke-width: 2.64px;
      }

      .cls-14 {
        opacity: .85;
        stroke-width: 6.75px;
      }

      .cls-15 {
        opacity: .9;
        stroke-width: 7.17px;
      }

      .cls-16 {
        opacity: .33;
        stroke-width: 2.38px;
      }

      .cls-17 {
        opacity: .38;
        stroke-width: 2.82px;
      }

      .cls-18 {
        opacity: .72;
        stroke-width: 5.68px;
      }

      .cls-19 {
        opacity: .92;
        stroke-width: 7.37px;
      }

      .cls-20 {
        opacity: .61;
        stroke-width: 4.79px;
      }

      .cls-21 {
        opacity: .74;
        stroke-width: 5.86px;
      }

      .cls-22 {
        opacity: .97;
        stroke-width: 7.79px;
      }

      .cls-23 {
        opacity: .21;
        stroke-width: 1.39px;
      }

      .cls-24 {
        opacity: .44;
        stroke-width: 3.36px;
      }

      .cls-25 {
        opacity: .94;
        stroke-width: 7.46px;
      }

      .cls-26 {
        opacity: .64;
        stroke-width: 4.96px;
      }

      .cls-27 {
        opacity: .53;
        stroke-width: 4.07px;
      }

      .cls-28 {
        opacity: .28;
        stroke-width: 1.96px;
      }

      .cls-29 {
        opacity: .85;
        stroke-width: 6.75px;
      }

      .cls-30 {
        opacity: .42;
        stroke-width: 3.18px;
      }

      .cls-31 {
        opacity: .25;
        stroke-width: 1.75px;
      }

      .cls-32 {
        opacity: .96;
        stroke-width: 7.64px;
      }

      .cls-33 {
        opacity: .59;
        stroke-width: 4.61px;
      }

      .cls-34 {
        opacity: .87;
        stroke-width: 6.96px;
      }

      .cls-35 {
        opacity: .79;
        stroke-width: 6.21px;
      }

      .cls-36 {
        opacity: .75;
        stroke-width: 5.92px;
      }

      .cls-37 {
        opacity: .7;
        stroke-width: 5.5px;
      }

      .cls-38 {
        opacity: .1;
        stroke-width: .5px;
      }

      .cls-39 {
        opacity: .55;
        stroke-width: 4.25px;
      }

      .cls-40 {
        opacity: .43;
        stroke-width: 3.21px;
      }

      .cls-41 {
        opacity: .57;
        stroke-width: 4.43px;
      }

      .cls-42 {
        opacity: .46;
        stroke-width: 3.54px;
      }

      .cls-43 {
        opacity: .62;
        stroke-width: 4.87px;
      }

      .cls-44 {
        opacity: .15;
        stroke-width: .92px;
      }

      .cls-45 {
        opacity: .82;
        stroke-width: 6.54px;
      }

      .cls-46 {
        opacity: .2;
        stroke-width: 1.33px;
      }

      .cls-47 {
        opacity: .57;
        stroke-width: 4.46px;
      }

      .cls-48 {
        opacity: .49;
        stroke-width: 3.71px;
      }

      .cls-49 {
        opacity: .83;
        stroke-width: 6.57px;
      }

      .cls-50 {
        opacity: .76;
        stroke-width: 6.04px;
      }

      .cls-51 {
        opacity: .14;
        stroke-width: .86px;
      }

      .cls-52 {
        opacity: .89;
        stroke-width: 7.11px;
      }

      .cls-53 {
        opacity: .51;
        stroke-width: 3.89px;
      }

      .cls-54 {
        stroke-width: 8px;
      }

      .cls-55 {
        opacity: .27;
        stroke-width: 1.93px;
      }

      .cls-56 {
        opacity: .87;
        stroke-width: 6.93px;
      }

      .cls-57 {
        opacity: .12;
        stroke-width: .68px;
      }

      .cls-58 {
        opacity: .19;
        stroke-width: 1.21px;
      }

      .cls-59 {
        opacity: .13;
        stroke-width: .71px;
      }

      .cls-60 {
        opacity: .8;
        stroke-width: 6.33px;
      }

      .cls-61 {
        opacity: .3;
        stroke-width: 2.17px;
      }

      .cls-62 {
        opacity: .98;
        stroke-width: 7.82px;
      }

      .cls-63 {
        opacity: .16;
        stroke-width: 1.04px;
      }

      .cls-64 {
        opacity: .29;
        stroke-width: 2.11px;
      }

      .cls-65 {
        opacity: .4;
        stroke-width: 3px;
      }

      .cls-66 {
        opacity: .65;
        stroke-width: 5.08px;
      }

      .cls-67 {
        opacity: .66;
        stroke-width: 5.14px;
      }

      .cls-68 {
        opacity: .4;
        stroke-width: 3px;
      }

      .cls-69 {
        opacity: .45;
        stroke-width: 3.42px;
      }

      .cls-70 {
        opacity: .91;
        stroke-width: 7.29px;
      }

      .cls-71 {
        opacity: .95;
        stroke-width: 7.58px;
      }

      .cls-72 {
        opacity: .72;
        stroke-width: 5.71px;
      }

      .cls-73 {
        opacity: .34;
        stroke-width: 2.46px;
      }

      .cls-74 {
        opacity: .77;
        stroke-width: 6.12px;
      }

      .cls-75 {
        opacity: .23;
        stroke-width: 1.57px;
      }

      .cls-76 {
        opacity: .6;
        stroke-width: 4.67px;
      }

      .cls-77 {
        opacity: .81;
        stroke-width: 6.39px;
      }
    </style>
  </defs>
  <path class="cls-22" d="M1120.52,997.71c-36.65-57.29-88.51-142.86-100.07-247.16-1.26-11.41-2.22-22.98-2.61-34.74-2.49-74.8,16.31-130.3,40.06-185.24,28.42-65.71,64.87-126.89,68.29-214.96,2.79-73.6-17.07-182.78-133.65-317.9"/>
  <path class="cls-71" d="M1100.87,997.71c-29.17-58.66-78.59-144.1-90.56-246.94-1.34-11.5-2.54-23.11-3.19-34.86-4.08-74.37,11.18-129.12,33.74-184.8,27.02-66.58,66.39-127.03,71.33-215.24,3.99-73.6-15.52-182.74-135.66-318.16"/>
  <path class="cls-19" d="M1081.22,997.71c-21.7-60.03-68.69-145.35-81.04-246.71-1.41-11.59-2.87-23.23-3.77-34.98-5.66-73.94,6.04-127.94,27.43-184.36,25.62-67.44,67.9-127.16,74.37-215.51,5.2-73.61-13.96-182.7-137.66-318.43"/>
  <path class="cls-15" d="M1061.57,997.71c-14.23-61.41-58.8-146.6-71.53-246.49-1.49-11.69-3.2-23.35-4.35-35.1-7.24-73.5.9-126.75,21.12-183.93,24.22-68.3,69.42-127.3,77.41-215.79,6.4-73.61-12.41-182.66-139.67-318.69"/>
  <path class="cls-34" d="M1041.92,997.71c-6.76-62.78-48.93-147.85-62.01-246.26-1.57-11.78-3.52-23.47-4.94-35.22-8.8-73.05-4.23-125.57,14.81-183.49,22.82-69.16,70.94-127.43,80.45-216.07,7.6-73.61-10.85-182.61-141.67-318.96"/>
  <path class="cls-29" d="M1022.27,997.71c.72-64.15-39.08-149.09-52.49-246.04-1.64-11.87-3.84-23.58-5.52-35.34-10.35-72.61-9.37-124.39,8.5-183.05,21.42-70.02,72.66-127.54,83.49-216.35,8.98-73.59-9.3-182.57-143.68-319.22"/>
  <path class="cls-45" d="M1002.62,997.71c8.19-65.52-29.24-150.34-42.98-245.81-1.72-11.97-4.16-23.7-6.1-35.46-11.89-72.15-14.51-123.21,2.18-182.61,20.02-70.88,74.2-127.67,86.53-216.63,10.2-73.59-7.74-182.53-145.69-319.48"/>
  <path class="cls-60" d="M982.96,997.71c15.66-66.89-19.42-151.59-33.46-245.59-1.8-12.06-4.48-23.82-6.68-35.58-13.42-71.7-19.64-122.03-4.13-182.18,18.62-71.74,75.74-127.8,89.57-216.91,11.42-73.59-6.19-182.49-147.69-319.75"/>
  <path class="cls-74" d="M963.31,997.71c23.13-68.26-9.62-152.83-23.95-245.36-1.88-12.16-4.8-23.94-7.26-35.7-14.94-71.24-24.78-120.84-10.44-181.74,17.22-72.6,77.28-127.93,92.62-217.18,12.64-73.58-4.64-182.44-149.7-320.01"/>
  <path class="cls-36" d="M943.66,997.71c30.61-69.63.17-154.08-14.43-245.14-1.96-12.25-5.11-24.05-7.84-35.82-16.45-70.79-29.91-119.66-16.75-181.3,15.82-73.46,78.81-128.05,95.66-217.46,13.86-73.58-3.08-182.4-151.7-320.27"/>
  <path class="cls-72" d="M924.01,997.71c38.08-71.01,9.95-155.32-4.92-244.91-2.05-12.34-5.42-24.17-8.43-35.94-17.94-70.33-35.05-118.48-23.07-180.87,14.42-74.32,80.35-128.18,98.7-217.74,15.08-73.58-1.53-182.36-153.71-320.54"/>
  <path class="cls-11" d="M904.36,997.71c45.55-72.38,19.71-156.56,4.6-244.69-2.13-12.44-5.74-24.29-9.01-36.06-19.43-69.87-40.19-117.3-29.38-180.43,13.02-75.18,81.88-128.31,101.74-218.02,16.29-73.57.03-182.32-155.71-320.8"/>
  <path class="cls-1" d="M884.71,997.71c53.02-73.75,29.46-157.8,14.11-244.46-2.22-12.53-6.04-24.41-9.59-36.18-20.9-69.42-45.32-116.12-35.69-179.99,11.61-76.04,83.4-128.44,104.78-218.3,17.5-73.57,1.58-182.27-157.72-321.07"/>
  <path class="cls-66" d="M865.06,997.71c60.5-75.12,39.19-159.04,23.63-244.24-2.31-12.63-6.35-24.52-10.17-36.3-22.36-68.96-50.46-114.94-42-179.56,10.21-76.9,84.93-128.56,107.82-218.58,18.71-73.57,3.14-182.23-159.73-321.33"/>
  <path class="cls-43" d="M845.41,997.71c67.97-76.49,48.91-160.27,33.14-244.01-2.39-12.72-6.66-24.64-10.75-36.42-23.82-68.51-55.6-113.75-48.32-179.12,8.81-77.76,86.45-128.69,110.86-218.86,19.92-73.57,4.69-182.19-161.73-321.59"/>
  <path class="cls-76" d="M825.76,997.71c75.44-77.86,58.62-161.51,42.66-243.79-2.49-12.81-6.96-24.76-11.34-36.54-25.26-68.06-60.73-112.57-54.63-178.68,7.41-78.62,87.97-128.82,113.9-219.13,21.12-73.56,6.25-182.15-163.74-321.86"/>
  <path class="cls-47" d="M806.11,997.71c82.91-79.23,68.32-162.74,52.18-243.56-2.58-12.91-7.27-24.88-11.92-36.66-26.69-67.62-65.87-111.39-60.94-178.25,6.01-79.48,89.49-128.95,116.94-219.41,22.33-73.56,7.8-182.11-165.74-322.12"/>
  <path class="cls-39" d="M786.46,997.71c90.39-80.61,78-163.97,61.69-243.34-2.67-13-7.57-25-12.5-36.78-28.11-67.18-71.01-110.21-67.25-177.81,4.61-80.34,91-129.08,119.99-219.69,23.53-73.56,9.35-182.06-167.75-322.38"/>
  <path class="cls-2" d="M766.81,997.71c97.86-81.98,87.67-165.2,71.21-243.11-2.77-13.09-7.87-25.12-13.08-36.9-29.53-66.74-76.14-109.03-73.57-177.37,3.21-81.2,92.52-129.21,123.03-219.97,24.73-73.56,10.91-182.02-169.75-322.65"/>
  <path class="cls-4" d="M747.15,997.71c105.33-83.35,97.33-166.42,80.72-242.89-2.86-13.18-8.17-25.24-13.66-37.02-30.93-66.31-81.28-107.85-79.88-176.93,1.81-82.06,94.03-129.35,126.07-220.25,25.93-73.56,12.46-181.98-171.76-322.91"/>
  <path class="cls-9" d="M727.5,997.71c112.8-84.72,106.98-167.65,90.24-242.66-2.96-13.28-8.46-25.36-14.24-37.14-32.33-65.88-86.42-106.66-86.19-176.5.41-82.92,95.54-129.48,129.11-220.53,27.12-73.56,14.02-181.94-173.76-323.18"/>
  <path class="cls-69" d="M707.85,997.71c120.28-86.09,116.62-168.87,99.75-242.44-3.06-13.37-8.76-25.48-14.83-37.26-33.73-65.46-91.55-105.48-92.5-176.06-.99-83.78,97.04-129.61,132.15-220.8,28.32-73.56,15.57-181.89-175.77-323.44"/>
  <path class="cls-40" d="M688.2,997.71c127.75-87.46,126.25-170.08,109.27-242.21-3.17-13.46-9.05-25.61-15.41-37.38-35.11-65.04-96.69-104.3-98.82-175.62-2.39-84.64,98.55-129.75,135.19-221.08,29.51-73.57,17.13-181.85-177.78-323.7"/>
  <path class="cls-65" d="M668.55,997.71c135.22-88.83,135.87-171.3,118.78-241.99-3.27-13.55-9.35-25.73-15.99-37.5-36.49-64.63-101.83-103.12-105.13-175.19-3.79-85.5,100.05-129.88,138.23-221.36,30.71-73.57,18.68-181.81-179.78-323.97"/>
  <path class="cls-3" d="M648.9,997.71c142.69-90.21,145.48-172.51,128.3-241.76-3.38-13.64-9.64-25.86-16.57-37.62-37.87-64.22-106.96-101.94-111.44-174.75-5.19-86.36,101.56-130.02,141.27-221.64,31.9-73.57,20.23-181.77-181.79-324.23"/>
  <path class="cls-10" d="M629.25,997.71c150.17-91.58,155.07-173.72,137.82-241.54-3.49-13.73-9.93-25.98-17.15-37.74-39.23-63.82-112.1-100.75-117.75-174.31-6.59-87.22,103.06-130.16,144.32-221.92,33.09-73.58,21.79-181.73-183.79-324.49"/>
  <path class="cls-16" d="M609.6,997.71c157.64-92.95,164.66-174.93,147.33-241.31-3.61-13.81-10.22-26.11-17.74-37.86-40.6-63.43-117.24-99.57-124.06-173.88-7.99-88.08,104.55-130.3,147.36-222.2,34.27-73.59,23.34-181.68-185.8-324.76"/>
  <path class="cls-61" d="M589.95,997.71c165.11-94.32,174.24-176.13,156.85-241.09-3.72-13.9-10.51-26.24-18.32-37.98-41.96-63.04-122.37-98.39-130.38-173.44-9.39-88.95,106.05-130.44,150.4-222.48,35.46-73.59,24.9-181.64-187.8-325.02"/>
  <path class="cls-28" d="M570.3,997.71c172.58-95.69,183.82-177.33,166.36-240.86-3.84-13.99-10.8-26.37-18.9-38.1-43.32-62.66-127.51-97.21-136.69-173-10.79-89.81,107.55-130.59,153.44-222.75,36.65-73.6,26.45-181.6-189.81-325.29"/>
  <path class="cls-8" d="M550.65,997.71c180.06-97.06,193.38-178.52,175.88-240.64-3.97-14.07-11.08-26.51-19.48-38.22-44.67-62.29-132.64-96.03-143-172.57-12.2-90.67,108.88-130.81,156.48-223.03,37.7-73.68,28.01-181.56-191.82-325.55"/>
  <path class="cls-6" d="M531,997.71c187.53-98.43,202.94-179.71,185.39-240.41-4.09-14.16-11.37-26.64-20.06-38.34-46.02-61.92-137.78-94.85-149.31-172.13-13.6-91.53,110.4-130.95,159.52-223.31,38.91-73.68,29.56-181.51-193.82-325.81"/>
  <path class="cls-46" d="M511.35,997.71c195-99.81,212.48-180.9,194.91-240.19-4.22-14.24-11.66-26.77-20.65-38.46-47.37-61.56-142.92-93.66-155.63-171.69-15-92.39,111.91-131.08,162.56-223.59,40.11-73.68,31.12-181.47-195.83-326.08"/>
  <path class="cls-5" d="M491.69,997.71c202.47-101.18,222.02-182.08,204.42-239.96-4.35-14.32-11.94-26.91-21.23-38.58-48.72-61.21-148.05-92.48-161.94-171.25-16.4-93.25,113.43-131.22,165.6-223.87,41.32-73.69,32.67-181.43-197.83-326.34"/>
  <path class="cls-44" d="M472.04,997.71c209.95-102.55,231.56-183.25,213.94-239.74-4.49-14.4-12.23-27.05-21.81-38.7-50.06-60.86-153.19-91.3-168.25-170.82-17.8-94.11,114.95-131.36,168.65-224.15,42.52-73.69,34.22-181.39-199.84-326.6"/>
  <path class="cls-59" d="M452.39,997.71c217.42-103.92,241.08-184.42,223.45-239.51-4.63-14.47-12.49-27.2-22.39-38.82-51.31-60.6-158.33-90.12-174.56-170.38-19.2-94.97,116.47-131.49,171.69-224.42,43.72-73.69,35.78-181.35-201.84-326.87"/>
  <path class="cls-38" d="M432.74,997.71c224.89-105.29,250.6-185.59,232.97-239.29-29.55-89.97-183.08-112.25-203.85-208.88-20.6-95.83,117.98-131.63,174.73-224.7,44.93-73.7,37.33-181.3-203.85-327.13"/>
  <path class="cls-57" d="M422.57-2.29c232.8,144.06,239.35,250.57,195.55,323.74-55.9,93.38-188.26,129.49-168.19,226.19,20.24,96.87,168.34,119.18,196.85,209.67,16.95,54.48-7.41,135.13-224.99,240.4"/>
  <path class="cls-51" d="M412.39-2.29c224.41,142.29,229.94,247.7,187.25,320.35-55.06,93.69-181.19,130.11-161.66,227.68,19.71,97.11,162.68,119.36,189.85,210.46,16.46,55.2-6.74,136.26-217.02,241.51"/>
  <path class="cls-63" d="M402.22-2.29c216.03,140.52,220.53,244.85,178.95,316.96-54.21,94.01-174.12,130.73-155.13,229.17,19.18,97.35,156.86,119.59,182.85,211.25,15.87,55.96-6.07,137.39-209.04,242.62"/>
  <path class="cls-58" d="M392.05-2.29c207.64,138.76,211.13,242,170.65,313.57-53.36,94.33-167.3,131.39-148.59,230.66,18.4,97.64,151.02,119.84,175.84,212.04,15.27,56.72-5.4,138.52-201.06,243.73"/>
  <path class="cls-23" d="M381.87-2.29c199.26,136.99,201.74,239.16,162.34,310.17-52.51,94.66-160.29,132.02-142.06,232.14s145.18,120.08,168.84,212.84c14.67,57.49-4.73,139.65-193.08,244.85"/>
  <path class="cls-75" d="M371.7-2.29c190.87,135.22,192.35,236.32,154.04,306.78-51.65,95-153.27,132.64-135.52,233.63s139.33,120.34,161.84,213.63c14.06,58.26-4.07,140.78-185.11,245.96"/>
  <path class="cls-31" d="M361.53-2.29c182.49,133.45,182.97,233.5,145.74,303.39-50.79,95.35-146.25,133.27-128.99,235.12,16.67,98.38,133.47,120.59,154.84,214.42,13.45,59.03-3.4,141.91-177.13,247.07"/>
  <path class="cls-55" d="M351.35-2.29c174.1,131.68,173.6,230.68,137.44,300-49.92,95.71-139.22,133.89-122.46,236.61s127.6,120.86,147.84,215.21c12.83,59.81-2.73,143.04-169.15,248.18"/>
  <path class="cls-64" d="M341.18-2.29c165.72,129.92,164.23,227.86,129.14,296.61-49.04,96.07-132.19,134.51-115.92,238.1,15.53,98.86,121.72,121.12,140.84,216,12.21,60.59-2.06,144.17-161.18,249.29"/>
  <path class="cls-12" d="M331.01-2.29c157.33,128.15,154.88,225.05,120.84,293.22-48.16,96.44-125.16,135.13-109.39,239.59,14.96,99.1,115.83,121.39,133.84,216.79,11.59,61.37-1.39,145.3-153.2,250.41"/>
  <path class="cls-73" d="M320.83-2.29c148.95,126.38,145.53,222.25,112.54,289.83-47.27,96.82-118.13,135.75-102.86,241.07,14.4,99.34,109.93,121.66,126.84,217.58,10.95,62.15-.72,146.43-145.22,251.52"/>
  <path class="cls-13" d="M310.66-2.29c140.56,124.61,136.19,219.46,104.24,286.43-46.37,97.2-111.09,136.37-96.32,242.56,13.85,99.58,104.02,121.94,119.84,218.37,10.32,62.93-.05,147.56-137.25,252.63"/>
  <path class="cls-17" d="M300.48-2.29c132.18,122.84,126.86,216.67,95.94,283.04-45.47,97.59-104.05,136.99-89.79,244.05,13.29,99.82,98.11,122.22,112.83,219.16,9.68,63.72.62,148.69-129.27,253.74"/>
  <path class="cls-68" d="M290.31-2.29c123.79,121.08,117.54,213.89,87.64,279.65-44.55,98-97,137.6-83.25,245.54,12.74,100.06,92.19,122.5,105.83,219.96,9.03,64.5,1.28,149.82-121.29,254.85"/>
  <path class="cls-30" d="M280.14-2.29c115.41,119.31,108.22,211.11,79.33,276.26-43.63,98.4-89.95,138.22-76.72,247.03,12.2,100.3,86.26,122.78,98.83,220.75,8.38,65.29,1.95,150.95-113.31,255.97"/>
  <path class="cls-24" d="M269.96-2.29c107.02,117.54,98.92,208.34,71.03,272.87-42.7,98.82-82.9,138.84-70.19,248.51,11.65,100.54,80.32,123.06,91.83,221.54,7.72,66.08,2.62,152.08-105.34,257.08"/>
  <path class="cls-42" d="M259.79-2.29c98.64,115.77,89.62,205.57,62.73,269.48-41.75,99.24-75.84,139.45-63.65,250,11.11,100.78,74.38,123.35,84.83,222.33,7.06,66.87,3.29,153.21-97.36,258.19"/>
  <path class="cls-48" d="M249.62-2.29c90.25,114,80.33,202.81,54.43,266.09-40.8,99.67-68.79,140.07-57.12,251.49,10.58,101.01,68.42,123.63,77.83,223.12,6.4,67.66,3.96,154.34-89.38,259.3"/>
  <path class="cls-53" d="M239.44-2.29c81.87,112.24,71.06,200.06,46.13,262.69-39.83,100.11-61.72,140.68-50.59,252.98,10.04,101.25,62.46,123.92,70.83,223.91,5.73,68.45,4.63,155.47-81.41,260.41"/>
  <path class="cls-27" d="M229.27-2.29c73.48,110.47,61.79,197.3,37.83,259.3-38.85,100.55-54.66,141.3-44.05,254.47,9.51,101.48,56.5,124.21,63.83,224.7,5.05,69.24,5.3,156.6-73.43,261.53"/>
  <path class="cls-39" d="M219.09-2.29c65.1,108.7,52.53,194.56,29.53,255.91-37.86,101-47.59,141.91-37.52,255.96,8.98,101.72,50.52,124.49,56.83,225.49,4.37,70.03,5.97,157.73-65.45,262.64"/>
  <path class="cls-41" d="M208.92-2.29c56.71,106.93,43.28,191.82,21.23,252.52-36.85,101.46-40.52,142.52-30.98,257.44,8.46,101.96,44.54,124.78,49.82,226.29,3.69,70.83,6.63,158.86-57.48,263.75"/>
  <path class="cls-33" d="M198.75-2.29c48.33,105.16,34.04,189.08,12.93,249.13-35.83,101.92-33.44,143.14-24.45,258.93,7.94,102.19,38.56,125.07,42.82,227.08,3,71.62,7.3,159.99-49.5,264.86"/>
  <path class="cls-20" d="M188.57-2.29c39.94,103.4,24.81,186.34,4.63,245.74-34.79,102.39-26.36,143.75-17.92,260.42,7.42,102.43,32.56,125.35,35.82,227.87,2.3,72.41,7.97,161.13-41.52,265.97"/>
  <path class="cls-26" d="M178.4-2.29c31.56,101.63,15.59,183.61-3.67,242.35-33.74,102.86-19.28,144.36-11.38,261.91,6.9,102.66,26.56,125.64,28.82,228.66,1.6,73.2,8.64,162.26-33.54,267.09"/>
  <path class="cls-67" d="M168.23-2.29c23.17,99.86,6.38,180.88-11.98,238.96-32.66,103.34-12.2,144.98-4.85,263.4,6.39,102.9,20.56,125.92,21.82,229.45.9,73.99,9.31,163.39-25.57,268.2"/>
  <path class="cls-7" d="M158.05-2.29c14.79,98.09-2.82,178.16-20.28,235.56-31.57,103.83-5.11,145.59,1.69,264.89,5.87,103.13,14.55,126.21,14.82,230.24.19,74.78,9.98,164.52-17.59,269.31"/>
  <path class="cls-37" d="M147.88-2.29c6.4,96.32-12.01,175.43-28.58,232.17-30.46,104.32,1.98,146.2,8.22,266.37,5.37,103.37,8.54,126.49,7.82,231.03-.52,75.56,10.65,165.65-9.61,270.42"/>
  <path class="cls-18" d="M137.7-2.29c-1.98,94.56-21.19,172.71-36.88,228.78-29.32,104.81,9.08,146.82,14.75,267.86,4.86,103.6,2.52,126.77.82,231.82-1.24,76.35,11.32,166.78-1.64,271.53"/>
  <path class="cls-21" d="M127.53-2.29c-10.37,92.79-30.36,169.99-45.18,225.39-28.17,105.31,16.17,147.43,21.29,269.35,4.35,103.84-3.51,127.05-6.18,232.62-1.96,77.14,11.98,167.91,6.34,272.65"/>
  <path class="cls-50" d="M117.36-2.29c-18.75,91.02-39.52,167.27-53.48,222-26.99,105.81,23.27,148.05,27.82,270.84,3.85,104.07-9.54,127.33-13.19,233.41-2.68,77.92,12.65,169.04,14.32,273.76"/>
  <path class="cls-35" d="M107.18-2.29c-27.14,89.25-48.67,164.55-61.78,218.61-25.79,106.31,30.38,148.66,34.35,272.33,3.35,104.31-15.57,127.61-20.19,234.2-3.41,78.71,13.32,170.17,22.3,274.87"/>
  <path class="cls-77" d="M97.01-2.29C61.49,85.19,39.2,159.55,26.93,212.92c-24.56,106.82,37.49,149.27,40.89,273.81,2.86,104.55-21.61,127.88-27.19,234.99-4.14,79.49,13.99,171.3,30.27,275.98"/>
  <path class="cls-49" d="M86.84-2.29C42.93,83.42,19.89,156.83,8.45,209.53c-23.3,107.33,44.6,149.89,47.42,275.3,2.36,104.78-27.65,128.16-34.19,235.78-4.87,80.27,14.66,172.43,38.25,277.09"/>
  <path class="cls-14" d="M76.66-2.29C24.37,81.66.6,154.11-10.02,206.14c-22.02,107.84,51.71,150.5,53.96,276.79,1.87,105.02-33.7,128.43-41.19,236.57-5.61,81.06,15.33,173.56,46.23,278.21"/>
  <path class="cls-56" d="M66.49-2.29C5.81,79.89-18.68,151.39-28.5,202.75c-20.71,108.35,58.82,151.12,60.49,278.28,1.38,105.26-39.75,128.7-48.19,237.36-6.36,81.83,16,174.69,54.2,279.32"/>
  <path class="cls-52" d="M56.31-2.29C-12.75,78.12-37.95,148.66-46.97,199.36c-19.36,108.85,65.94,151.74,67.02,279.77.89,105.5-45.81,128.97-55.19,238.15-7.1,82.61,16.67,175.82,62.18,280.43"/>
  <path class="cls-70" d="M46.14-2.29C-31.31,76.35-57.22,145.94-65.45,195.97-83.43,305.33,7.86,348.32,8.11,477.22c.6,105.73-51.86,129.24-62.19,238.95-7.85,83.39,17.33,176.95,70.16,281.54"/>
  <path class="cls-25" d="M35.97-2.29C-49.87,74.58-76.47,143.21-83.92,192.58-100.5,302.44-3.55,345.54-3.83,475.32c.07,105.97-57.92,129.5-69.19,239.74-8.6,84.17,18,178.08,78.13,282.65"/>
  <path class="cls-32" d="M25.79-2.29C-68.42,72.82-95.72,140.48-102.4,189.18c-15.14,110.37,87.44,153.59,86.62,284.23-.46,106.21-64.2,129.74-76.2,240.53-9.52,84.92,18.67,179.21,86.11,283.77"/>
  <path class="cls-62" d="M15.62-2.29C-86.98,71.05-114.95,137.74-120.87,185.79c-13.66,110.86,94.51,154.2,93.16,285.72-.99,106.45-70.16,130.01-83.2,241.32-10.2,85.7,19.34,180.34,94.09,284.88"/>
  <path class="cls-54" d="M5.45-2.29c-110.99,71.57-139.62,137.29-144.79,184.69-12.15,111.35,101.58,154.82,99.69,287.21-1.52,106.69-76.13,130.28-90.2,242.11-10.88,86.48,20.01,181.47,102.07,285.99"/>
</svg>